<mxfile host="app.diagrams.net" modified="2020-09-24T05:37:16.137Z" agent="5.0 (Windows NT 10.0; Win64; x64) AppleWebKit/537.36 (KHTML, like Gecko) Chrome/85.0.4183.121 Safari/537.36" etag="2RtCPSjzF0s5gWAXq39f" version="13.7.3" type="github">
  <diagram id="-Jtt_3MR1NpMMPZAaNFP" name="Page-1">
    <mxGraphModel dx="782" dy="437" grid="1" gridSize="10" guides="1" tooltips="1" connect="1" arrows="1" fold="1" page="1" pageScale="1" pageWidth="850" pageHeight="1100" math="0" shadow="0">
      <root>
        <mxCell id="0" />
        <mxCell id="1" parent="0" />
        <mxCell id="yjj8UdVl8cW0Mhc2JFxJ-1" value="&lt;b&gt;Header Table&lt;/b&gt;&lt;br&gt;&lt;u&gt;&lt;br&gt;Item Frequency head&lt;br&gt;&lt;/u&gt;&lt;br&gt;K - 6&lt;br&gt;&lt;br&gt;E - 4&lt;br&gt;&lt;br&gt;O - 4&lt;br&gt;&lt;br&gt;M - 3" style="rounded=0;whiteSpace=wrap;html=1;" vertex="1" parent="1">
          <mxGeometry x="80" y="190" width="170" height="230" as="geometry" />
        </mxCell>
        <mxCell id="yjj8UdVl8cW0Mhc2JFxJ-2" value="{}" style="whiteSpace=wrap;html=1;aspect=fixed;" vertex="1" parent="1">
          <mxGeometry x="440" y="119" width="40" height="40" as="geometry" />
        </mxCell>
        <mxCell id="yjj8UdVl8cW0Mhc2JFxJ-3" value="K : 6" style="whiteSpace=wrap;html=1;aspect=fixed;" vertex="1" parent="1">
          <mxGeometry x="360" y="160" width="40" height="40" as="geometry" />
        </mxCell>
        <mxCell id="yjj8UdVl8cW0Mhc2JFxJ-4" value="E : 4" style="whiteSpace=wrap;html=1;aspect=fixed;" vertex="1" parent="1">
          <mxGeometry x="360" y="240" width="40" height="40" as="geometry" />
        </mxCell>
        <mxCell id="yjj8UdVl8cW0Mhc2JFxJ-5" value="O : 3" style="whiteSpace=wrap;html=1;aspect=fixed;" vertex="1" parent="1">
          <mxGeometry x="360" y="320" width="40" height="40" as="geometry" />
        </mxCell>
        <mxCell id="yjj8UdVl8cW0Mhc2JFxJ-6" value="M : 1" style="whiteSpace=wrap;html=1;aspect=fixed;" vertex="1" parent="1">
          <mxGeometry x="360" y="400" width="40" height="40" as="geometry" />
        </mxCell>
        <mxCell id="yjj8UdVl8cW0Mhc2JFxJ-7" value="M : 1" style="whiteSpace=wrap;html=1;aspect=fixed;" vertex="1" parent="1">
          <mxGeometry x="440" y="240" width="40" height="40" as="geometry" />
        </mxCell>
        <mxCell id="yjj8UdVl8cW0Mhc2JFxJ-8" value="O : 1" style="whiteSpace=wrap;html=1;aspect=fixed;" vertex="1" parent="1">
          <mxGeometry x="520" y="240" width="40" height="40" as="geometry" />
        </mxCell>
        <mxCell id="yjj8UdVl8cW0Mhc2JFxJ-9" value="M : 1" style="whiteSpace=wrap;html=1;aspect=fixed;" vertex="1" parent="1">
          <mxGeometry x="440" y="320" width="40" height="40" as="geometry" />
        </mxCell>
        <mxCell id="yjj8UdVl8cW0Mhc2JFxJ-10" value="" style="endArrow=block;dashed=1;endFill=0;endSize=12;html=1;entryX=0;entryY=0.5;entryDx=0;entryDy=0;exitX=1.02;exitY=0.214;exitDx=0;exitDy=0;exitPerimeter=0;" edge="1" parent="1" source="yjj8UdVl8cW0Mhc2JFxJ-1" target="yjj8UdVl8cW0Mhc2JFxJ-3">
          <mxGeometry width="160" relative="1" as="geometry">
            <mxPoint x="320" y="260" as="sourcePoint" />
            <mxPoint x="480" y="260" as="targetPoint" />
          </mxGeometry>
        </mxCell>
        <mxCell id="yjj8UdVl8cW0Mhc2JFxJ-11" value="" style="endArrow=block;dashed=1;endFill=0;endSize=12;html=1;exitX=1.02;exitY=0.214;exitDx=0;exitDy=0;exitPerimeter=0;" edge="1" parent="1">
          <mxGeometry width="160" relative="1" as="geometry">
            <mxPoint x="250.00000000000009" y="280" as="sourcePoint" />
            <mxPoint x="360" y="260" as="targetPoint" />
          </mxGeometry>
        </mxCell>
        <mxCell id="yjj8UdVl8cW0Mhc2JFxJ-12" value="" style="endArrow=block;dashed=1;endFill=0;endSize=12;html=1;entryX=0;entryY=0.5;entryDx=0;entryDy=0;exitX=1.004;exitY=0.551;exitDx=0;exitDy=0;exitPerimeter=0;" edge="1" parent="1" source="yjj8UdVl8cW0Mhc2JFxJ-1" target="yjj8UdVl8cW0Mhc2JFxJ-5">
          <mxGeometry width="160" relative="1" as="geometry">
            <mxPoint x="250.00000000000009" y="334.61" as="sourcePoint" />
            <mxPoint x="356.6" y="275.39" as="targetPoint" />
          </mxGeometry>
        </mxCell>
        <mxCell id="yjj8UdVl8cW0Mhc2JFxJ-13" value="" style="endArrow=block;dashed=1;endFill=0;endSize=12;html=1;exitX=1.004;exitY=0.551;exitDx=0;exitDy=0;exitPerimeter=0;" edge="1" parent="1">
          <mxGeometry width="160" relative="1" as="geometry">
            <mxPoint x="250.00000000000006" y="360" as="sourcePoint" />
            <mxPoint x="359" y="420" as="targetPoint" />
          </mxGeometry>
        </mxCell>
        <mxCell id="yjj8UdVl8cW0Mhc2JFxJ-14" value="" style="endArrow=block;dashed=1;endFill=0;endSize=12;html=1;exitX=1.004;exitY=0.551;exitDx=0;exitDy=0;exitPerimeter=0;entryX=0.5;entryY=1;entryDx=0;entryDy=0;" edge="1" parent="1" target="yjj8UdVl8cW0Mhc2JFxJ-9">
          <mxGeometry width="160" relative="1" as="geometry">
            <mxPoint x="400" y="420" as="sourcePoint" />
            <mxPoint x="509" y="480" as="targetPoint" />
          </mxGeometry>
        </mxCell>
        <mxCell id="yjj8UdVl8cW0Mhc2JFxJ-15" value="" style="endArrow=block;dashed=1;endFill=0;endSize=12;html=1;exitX=1.004;exitY=0.551;exitDx=0;exitDy=0;exitPerimeter=0;entryX=0;entryY=0.5;entryDx=0;entryDy=0;" edge="1" parent="1" target="yjj8UdVl8cW0Mhc2JFxJ-8">
          <mxGeometry width="160" relative="1" as="geometry">
            <mxPoint x="400" y="340" as="sourcePoint" />
            <mxPoint x="509" y="400" as="targetPoint" />
          </mxGeometry>
        </mxCell>
        <mxCell id="yjj8UdVl8cW0Mhc2JFxJ-16" value="" style="endArrow=block;dashed=1;endFill=0;endSize=12;html=1;exitX=0.5;exitY=0;exitDx=0;exitDy=0;entryX=0.5;entryY=1;entryDx=0;entryDy=0;" edge="1" parent="1" source="yjj8UdVl8cW0Mhc2JFxJ-9" target="yjj8UdVl8cW0Mhc2JFxJ-7">
          <mxGeometry width="160" relative="1" as="geometry">
            <mxPoint x="410" y="350" as="sourcePoint" />
            <mxPoint x="530" y="270" as="targetPoint" />
          </mxGeometry>
        </mxCell>
        <mxCell id="yjj8UdVl8cW0Mhc2JFxJ-18" value="" style="endArrow=none;html=1;exitX=0.5;exitY=0;exitDx=0;exitDy=0;" edge="1" parent="1" source="yjj8UdVl8cW0Mhc2JFxJ-4">
          <mxGeometry width="50" height="50" relative="1" as="geometry">
            <mxPoint x="330" y="250" as="sourcePoint" />
            <mxPoint x="380" y="200" as="targetPoint" />
          </mxGeometry>
        </mxCell>
        <mxCell id="yjj8UdVl8cW0Mhc2JFxJ-19" value="" style="endArrow=none;html=1;exitX=0.5;exitY=1;exitDx=0;exitDy=0;entryX=0.5;entryY=0;entryDx=0;entryDy=0;" edge="1" parent="1" source="yjj8UdVl8cW0Mhc2JFxJ-4" target="yjj8UdVl8cW0Mhc2JFxJ-5">
          <mxGeometry width="50" height="50" relative="1" as="geometry">
            <mxPoint x="390" y="250" as="sourcePoint" />
            <mxPoint x="390" y="210" as="targetPoint" />
          </mxGeometry>
        </mxCell>
        <mxCell id="yjj8UdVl8cW0Mhc2JFxJ-21" value="" style="endArrow=none;html=1;exitX=0.5;exitY=0;exitDx=0;exitDy=0;entryX=0.5;entryY=1;entryDx=0;entryDy=0;" edge="1" parent="1" source="yjj8UdVl8cW0Mhc2JFxJ-6" target="yjj8UdVl8cW0Mhc2JFxJ-5">
          <mxGeometry width="50" height="50" relative="1" as="geometry">
            <mxPoint x="350" y="410" as="sourcePoint" />
            <mxPoint x="400" y="360" as="targetPoint" />
          </mxGeometry>
        </mxCell>
        <mxCell id="yjj8UdVl8cW0Mhc2JFxJ-22" value="" style="endArrow=none;html=1;exitX=0;exitY=0;exitDx=0;exitDy=0;entryX=1;entryY=1;entryDx=0;entryDy=0;" edge="1" parent="1" source="yjj8UdVl8cW0Mhc2JFxJ-7" target="yjj8UdVl8cW0Mhc2JFxJ-3">
          <mxGeometry width="50" height="50" relative="1" as="geometry">
            <mxPoint x="390" y="410" as="sourcePoint" />
            <mxPoint x="390" y="370" as="targetPoint" />
          </mxGeometry>
        </mxCell>
        <mxCell id="yjj8UdVl8cW0Mhc2JFxJ-23" value="" style="endArrow=none;html=1;exitX=0;exitY=0;exitDx=0;exitDy=0;" edge="1" parent="1" source="yjj8UdVl8cW0Mhc2JFxJ-8">
          <mxGeometry width="50" height="50" relative="1" as="geometry">
            <mxPoint x="450" y="250" as="sourcePoint" />
            <mxPoint x="400" y="200" as="targetPoint" />
          </mxGeometry>
        </mxCell>
        <mxCell id="yjj8UdVl8cW0Mhc2JFxJ-24" value="" style="endArrow=none;html=1;exitX=0;exitY=0;exitDx=0;exitDy=0;entryX=1;entryY=1;entryDx=0;entryDy=0;" edge="1" parent="1" source="yjj8UdVl8cW0Mhc2JFxJ-9" target="yjj8UdVl8cW0Mhc2JFxJ-4">
          <mxGeometry width="50" height="50" relative="1" as="geometry">
            <mxPoint x="460" y="260" as="sourcePoint" />
            <mxPoint x="420" y="220" as="targetPoint" />
          </mxGeometry>
        </mxCell>
      </root>
    </mxGraphModel>
  </diagram>
</mxfile>
